<?xml version="1.0" standalone="no"?>
<!DOCTYPE svg PUBLIC "-//W3C//DTD SVG 20010904//EN"
 "http://www.w3.org/TR/2001/REC-SVG-20010904/DTD/svg10.dtd">
<svg version="1.0" xmlns="http://www.w3.org/2000/svg"
 width="1304.000000pt" height="336.000000pt" viewBox="0 0 1304.000000 336.000000"
 preserveAspectRatio="xMidYMid meet">
<metadata>
Created by potrace 1.16, written by Peter Selinger 2001-2019
</metadata>
<g transform="translate(0.000000,336.000000) scale(0.100000,-0.100000)"
fill="#000000" stroke="none">
<path d="M192 3260 c-18 -11 -41 -34 -52 -52 -20 -33 -20 -54 -20 -1528 0
-1474 0 -1495 20 -1528 11 -18 34 -41 52 -52 33 -20 64 -20 6328 -20 6264 0
6295 0 6328 20 18 11 41 34 52 52 20 33 20 54 20 1528 0 1474 0 1495 -20 1528
-11 18 -34 41 -52 52 -33 20 -64 20 -6328 20 -6264 0 -6295 0 -6328 -20z
m6960 -1038 c57 -29 113 -88 140 -149 27 -60 23 -257 -6 -315 -25 -51 -86
-110 -135 -133 -23 -10 -41 -23 -41 -29 0 -6 11 -30 24 -53 17 -29 21 -44 13
-52 -8 -8 0 -32 29 -86 l39 -75 58 0 57 0 0 -40 c0 -38 -2 -40 -30 -40 -36 0
-36 0 -10 -50 11 -22 20 -44 20 -50 0 -6 -50 -10 -139 -10 l-139 0 -46 84
c-34 61 -52 86 -68 88 -16 2 -39 32 -85 108 -34 58 -62 108 -63 113 0 4 7 7
15 7 18 0 19 14 5 41 -10 18 -23 19 -235 19 l-225 0 -2 -227 -3 -228 -142 -3
-143 -3 0 75 c0 74 0 75 28 78 l27 3 0 120 0 120 -27 3 -28 3 0 355 0 355 533
-3 532 -3 47 -23z m-4412 -102 l0 -120 -422 -2 -423 -3 -5 -145 -5 -145 -40
-5 -40 -5 -3 -137 c-2 -132 -2 -137 22 -165 l24 -28 444 -5 443 -5 0 -110 0
-110 -505 0 c-404 0 -511 3 -537 14 -18 7 -30 17 -27 22 3 5 220 9 490 9 316
0 484 3 484 10 0 7 -180 10 -519 10 l-519 0 -32 37 c-67 76 -75 108 -75 308
l0 180 30 3 c79 7 75 0 75 127 l0 114 -47 3 c-59 4 -64 18 -30 91 36 79 108
144 187 168 14 4 251 8 528 8 l502 1 0 -120z m2697 -45 c7 -12 51 -15 268 -17
l260 -3 0 -100 0 -100 -352 -3 -353 -2 0 -65 0 -65 338 -2 337 -3 0 -100 0
-100 -357 -3 -358 -2 0 -60 c0 -53 2 -60 19 -60 13 0 21 -8 23 -22 l3 -23 353
-3 352 -2 0 -105 0 -105 -467 2 -468 3 -3 118 c-2 109 -4 117 -22 117 -19 0
-20 7 -20 110 0 103 1 110 20 110 19 0 20 8 22 233 l3 232 113 3 c90 2 112 5
112 17 0 22 165 22 177 0z m2420 0 c7 -12 51 -15 268 -17 l260 -3 0 -100 0
-100 -352 -3 -353 -2 0 -65 0 -65 338 -2 337 -3 0 -100 0 -100 -357 -3 -358
-2 0 -60 c0 -53 2 -60 19 -60 13 0 21 -8 23 -22 l3 -23 353 -3 352 -2 0 -105
0 -105 -467 2 -468 3 -3 118 c-2 109 -4 117 -22 117 -19 0 -20 7 -20 110 0
103 1 110 20 110 19 0 20 8 22 233 l3 232 113 3 c90 2 112 5 112 17 0 22 165
22 177 0z m-4242 -34 c17 -7 25 -15 18 -18 -27 -10 -11 -23 26 -23 33 0 44 -5
65 -33 49 -64 56 -96 56 -257 0 -125 -3 -152 -15 -156 -23 -9 -22 -182 2 -199
16 -12 16 -15 -1 -60 -25 -63 -66 -108 -128 -139 l-52 -26 -280 0 c-268 0
-356 8 -356 30 0 6 11 10 25 10 14 0 25 5 25 10 0 6 -24 10 -53 10 -59 0 -78
14 -113 80 -16 29 -19 63 -22 198 -3 114 0 162 7 162 6 0 16 11 21 25 5 14 15
25 22 25 8 0 6 5 -4 11 -14 8 -18 23 -18 71 0 43 -4 64 -15 72 -14 10 -14 16
-1 54 9 24 25 57 36 73 24 33 96 78 143 90 57 14 578 6 612 -10z m1141 4 c60
-18 118 -64 144 -116 21 -41 27 -89 10 -89 -5 0 -10 -24 -10 -54 0 -88 3 -86
-126 -86 l-113 0 -3 78 -3 77 -255 0 -255 0 -3 -257 -2 -258 244 0 c244 0 245
0 273 24 26 23 28 29 31 128 3 86 1 106 -12 117 -9 8 -16 28 -16 47 l0 34 115
0 c94 0 115 -3 115 -15 0 -8 9 -19 20 -25 18 -10 20 -21 20 -141 0 -156 -11
-205 -57 -258 l-35 -41 -346 -2 -347 -3 323 -2 c177 -2 322 -7 322 -12 0 -27
-62 -31 -464 -31 -368 0 -415 2 -420 16 -3 9 -6 60 -6 114 0 95 -1 99 -22 102
-21 3 -23 8 -23 63 0 55 2 60 23 63 l22 3 0 254 c0 139 3 260 6 269 5 14 50
16 403 16 321 0 407 -3 447 -15z m3982 -352 l2 -363 358 -2 357 -3 0 -95 0
-95 -190 0 -189 0 -6 23 c-7 33 -24 32 -28 0 l-3 -28 -290 0 -289 0 0 34 c0
28 4 35 23 38 19 3 22 10 25 56 l3 52 -30 0 -31 0 0 169 0 170 28 3 27 3 3
173 c2 164 3 172 22 172 14 0 20 7 20 23 0 13 3 27 7 31 4 4 46 5 93 4 l85 -3
3 -362z m1558 330 c103 -150 352 -539 348 -545 -3 -4 -61 -8 -130 -8 l-125 0
-94 145 c-52 80 -97 145 -99 145 -2 0 -21 -27 -42 -60 -34 -52 -43 -59 -74
-62 -33 -3 -41 -11 -142 -163 -60 -88 -108 -163 -108 -167 0 -4 9 -8 20 -8 11
0 20 -3 20 -6 0 -4 -25 -42 -57 -85 l-56 -79 -114 0 c-84 0 -113 3 -113 13 0
7 16 36 35 64 37 56 42 69 24 75 -17 6 220 358 241 358 14 0 70 68 70 85 0 3
-22 5 -49 5 -41 0 -51 4 -65 25 -9 13 -16 27 -16 30 0 3 40 5 89 5 l89 0 82
128 c46 70 88 130 94 134 6 4 41 8 79 8 66 0 67 0 93 -37z m776 -40 c43 -43
78 -83 78 -90 0 -7 -11 -13 -25 -13 -33 0 -32 -7 7 -47 27 -28 39 -33 78 -33
l45 0 88 105 c48 57 87 107 87 110 0 3 -9 5 -21 5 -14 0 -19 5 -17 18 3 15 22
17 201 20 136 2 197 -1 197 -8 0 -6 -57 -82 -127 -168 -213 -264 -190 -242
-245 -242 -47 0 -63 -12 -33 -24 9 -3 15 -18 15 -40 0 -21 -6 -36 -15 -40 -22
-8 -22 -248 0 -266 12 -10 15 -29 13 -74 l-3 -61 -152 -3 c-94 -1 -153 1 -153
7 0 5 -19 11 -42 13 -42 3 -43 4 -46 42 -4 44 7 56 56 56 l32 0 0 170 0 170
-28 0 c-24 0 -48 22 -158 150 -71 83 -130 155 -132 160 -2 6 3 10 12 10 23 0
20 7 -25 61 -28 34 -48 49 -65 49 -23 0 -32 18 -17 33 3 4 76 7 162 7 l156 0
77 -77z m-294 -696 c50 -76 92 -142 92 -148 0 -6 -50 -9 -132 -7 l-132 3 -68
103 -68 102 -44 0 c-48 0 -64 19 -51 59 8 25 31 29 185 27 l125 -1 93 -138z"/>
<path d="M6400 2001 c0 -37 -12 -51 -41 -51 -28 0 -29 -1 -29 -55 l0 -55 328
0 c322 0 329 0 348 21 28 32 25 116 -5 141 -21 17 -46 18 -312 18 -278 0 -289
-1 -289 -19z"/>
<path d="M3365 1860 c-4 -6 -60 -10 -135 -10 -71 0 -131 -4 -134 -9 -4 -5 -7
-59 -8 -120 -1 -80 -5 -114 -14 -122 -10 -8 -14 -40 -14 -114 0 -97 2 -105 27
-135 25 -31 28 -31 87 -25 34 3 121 8 194 11 l132 5 0 73 c0 39 5 77 11 83 8
8 8 13 0 17 -17 11 -13 66 4 72 12 5 15 28 15 116 0 108 0 110 -29 139 -25 24
-38 29 -80 29 -27 0 -53 -4 -56 -10z"/>
</g>
</svg>
